<?xml version="1.0" standalone="no"?>
<!DOCTYPE svg PUBLIC "-//W3C//DTD SVG 20010904//EN"
 "http://www.w3.org/TR/2001/REC-SVG-20010904/DTD/svg10.dtd">
<svg version="1.0" xmlns="http://www.w3.org/2000/svg"
 width="920.000000pt" height="920.000000pt" viewBox="0 0 920.000000 920.000000"
 preserveAspectRatio="xMidYMid meet">
<metadata>
Created by potrace 1.16, written by Peter Selinger 2001-2019
</metadata>
<g transform="translate(0.000000,920.000000) scale(0.100000,-0.100000)"
fill="#000000" stroke="none">
<path d="M1110 7469 c-111 -8 -135 -15 -227 -63 -135 -71 -228 -182 -277 -328
-37 -109 -37 -247 0 -356 60 -180 186 -305 371 -369 l78 -27 3540 0 c3368 0
3543 1 3600 18 202 60 360 218 411 410 18 66 18 226 0 292 -23 85 -86 194
-151 259 -65 65 -182 133 -270 155 -40 11 -720 13 -3515 14 -1906 1 -3508 -2
-3560 -5z"/>
<path d="M1110 5173 c-195 -14 -377 -134 -466 -308 -50 -97 -67 -163 -67 -265
0 -102 17 -168 66 -264 70 -135 182 -230 334 -283 l78 -27 3540 0 c3372 0
3543 1 3600 18 141 42 255 123 329 234 191 288 94 673 -209 828 -44 23 -102
47 -130 54 -40 11 -714 13 -3545 14 -1922 1 -3511 0 -3530 -1z"/>
<path d="M1080 2868 c-223 -22 -419 -192 -485 -420 -19 -68 -22 -213 -4 -283
28 -114 115 -249 204 -315 65 -49 156 -94 225 -111 81 -19 7078 -20 7160 0
197 48 365 210 424 411 20 65 22 216 5 286 -16 67 -80 189 -129 246 -56 64
-166 136 -258 166 l-77 25 -3500 1 c-1925 1 -3529 -2 -3565 -6z"/>
</g>
</svg>
